<svg xmlns="http://www.w3.org/2000/svg" width="110" height="122"><desc>Created with Sketch.</desc><path fill="#828CA2" d="M88.56 102.5c-.19 0-.612 1.44-.177 2.46.232.544.776.774 1.232.622.45-.15.58-.578.592-.91.042-1.12-.938-2.17-1.646-2.17zm-3.263-16.32l.143 1.58-1.363-.152v1.8l1.363-.153-.143 1.65h1.85l-.142-1.65 1.363.152v-1.8l-1.363.153.143-1.58h-1.85zm.928 6.227c-.37 0-.668.306-.668.684 0 .378.3.684.668.684.37 0 .668-.306.668-.683 0-.377-.3-.683-.668-.683zm0 2.768c-.37 0-.668.306-.668.683 0 .378.3.684.668.684.37 0 .668-.306.668-.684 0-.377-.3-.683-.668-.683zm0 2.807c-.37 0-.668.306-.668.683 0 .378.3.684.668.684.37 0 .668-.307.668-.685 0-.377-.3-.683-.668-.683zm2.156.683c0 .378.3.684.668.684.37 0 .668-.307.668-.685 0-.377-.3-.683-.668-.683-.368 0-.667.306-.667.683zm2.8 0c0 .378.298.684.667.684.368 0 .667-.307.667-.685 0-.377-.3-.683-.667-.683-.37 0-.668.306-.668.683zm-4.955 3.075c-.57 0-1.98 2.904-.93 4.373.2.28.553.44.93.44s.73-.16.93-.44c1.05-1.47-.36-4.373-.93-4.373zm-2.336.76c-.71 0-1.69 1.053-1.647 2.172.012.332.143.76.592.91.455.152 1-.078 1.232-.62.435-1.022.012-2.46-.178-2.46zm-1.087-3.835c0 .378.298.684.667.684.37 0 .668-.307.668-.685 0-.377-.3-.683-.668-.683-.37 0-.667.306-.667.683zm-2.73 0c0 .378.3.684.668.684.37 0 .67-.307.67-.685 0-.377-.3-.683-.67-.683-.368 0-.667.306-.667.683zm-.658 0c0-.582.1-1.107.1-1.107h5.548V91.86c-2.678.47-4.82 2.54-5.458 5.215-.155.222-.658.336-1.013.296-2.047-.25-6.19-1-6.19-1.883 0-1.243.84-1.74 1.646-1.74 1.15 0 2.42.624 3.48-.912-3.767.173-.88-5.282-3.97-6.317.154 1.393.002 3.844-.485 5.14 0 0-1.107-1.187-2.35-1.634.093 1.012-.096 3.108-.547 4.062 0 0-1.316-1.222-2.682-1.68 1.26 1.832 1.217 4.444.878 6.033-.098.46.243 1.03 1.204.99 1.502-.068 6.633.16 8.86 1.07.69.285 1.284.61 1.573 1.105.235.666.818 1.698 1.536 2.227.323-1.152 1.697-2.385 2.592-2.34.267.013.563.46.624.9.08-.41.74-1.536 1.463-1.536.668 0 1.31.943 1.532 1.722.067-.5.362-1.035.63-1.035.898 0 2.03.8 2.455 2.12.345-.432 1.93-2.473 2.108-3.812H79.516s-.1-.578-.1-1.185zm7.97-6.804v5.698h5.554c-.484-2.905-2.72-5.198-5.554-5.697zm-65.52 4.692c.116.04.234.01.35-.05-.374.52-.36.865-.197 1.026.253.25.44-.21 1.08-.892.64-.68 1.084-.887.83-1.14-.16-.16-.498-.166-1 .245.054-.12.075-.24.035-.356-.212-.614-1.197-1.43-1.74-1.433-.084 0-.16.02-.228.05.24-.386.177-.676.017-.835-.176-.175-.277-.053-.474.2.026-.176-.02-.384-.185-.637-.816-1.237-5.13-5.31-6.108-5.72-.585-.244-.776.095-.776.095s-.325.21-.07.803c.43.995 4.573 5.247 5.8 6.048.25.163.453.203.623.17-.238.21-.352.317-.177.492.16.16.445.213.81-.046-.024.072-.04.15-.037.236.017.56.84 1.547 1.445 1.746zm-10.367-12.05c-.128 0-.31.03-.443.173-.135.143-.182.365-.133.623.054.28.213.564.45.8.28.28.636.45.948.45.128 0 .308-.03.442-.172.29-.31.147-.96-.315-1.423-.283-.28-.637-.45-.95-.45zM24.91 99.62c-.003-.43-.815-1.152-1.777-1.152-1.43 0-2.05.91-2.05 1.374 0 .874.84.986 1.098 1 1.008.063 2.63-.97 2.73-1.222zm-1.23 2.18c-.38.49-.523.967-.425 1.42.12.548.66.794 1.14.794.51 0 .964-.24 1.22-.645.545-.866.57-2.782.385-2.992-.458 0-1.676.594-2.32 1.423zM11.127 81.854c-.405-.403-1.23.198-1.725-.082.22-1.23 1.087.062 1.926-.828.333-.356.154-.912-.038-1.08-.362.37-.92.24-.964.037.952-2.26-.908-4.78-2.695-4.465.35.47.455 2.11.303 2.55.68.492.194 1.647-.557 1.31-.504-.205-1.393-1.47-.37-2.36-.03-.32-.592-.398-1.19.375.438-1.42-2.243-.974-2.794-.633-.313.577-.66 3.35.703 2.855-.732.64-.64 1.214-.327 1.235.833-1.08 2.086-.204 2.303.308.35.763-.758 1.298-1.255.614-.425.17-2.017.114-2.485-.232-.25 1.848 2.254 3.683 4.418 2.633.2.04.34.61-.005.994.17.193.713.36 1.05.004.836-.89-.446-1.744.743-2.01.288.5-.27 1.37.135 1.774.647.645 1.46-.606 2.257-.656.023-.823 1.212-1.697.566-2.343zM4.425 79s-.418-.298.083-.845c.514-.534.818-.112.818-.112s.47 1.053.61 1.538c-.475-.127-1.51-.58-1.51-.58zm4.14 3.203c-.26.033-.875.583-1.184.275L5.97 81.07l.706-.75.708-.75 1.41 1.408c.308.307-.206.958-.23 1.225zm23.383 21.57c.048-.21.015-.38-.095-.49-.035-.034-.065-.054-.084-.054-.08 0-.258.22-.428.432-.142.176-.32.395-.545.634-.225.24-.433.43-.6.58-.198.18-.403.368-.405.452 0 .02.02.05.056.087.073.073.17.11.29.11.18 0 .574-.094 1.165-.723.45-.477.6-.823.645-1.03zm.01 1.68c-.31.327-.622.56-.794.68.122.124.47.345.907.345.25 0 .482-.074.694-.22.435-.72.016-1.455-.173-1.643-.11.182-.326.512-.633.838zm-4.764-4.005c-.224.21-.742 1.672-.516 2.562.097.382.307.545.662.526.367-.024.567-.216.63-.606.14-.89-.532-2.302-.776-2.482zm-.283-4.062c.013.025 2.657 2.357 3.545 3.202.21.2.497.245.79.096.167-.086.375-.184.59-.283 2.644-.936 6.994-1.042 8.59-.97.96.04 1.3-.53 1.203-.99-.313-1.505-.382-4.202.877-6.033-1.365.457-2.68 1.68-2.68 1.68-.453-.955-.642-3.05-.548-4.063-1.243.447-2.35 1.633-2.35 1.633-.488-1.295-.64-3.746-.486-5.14-3.09 1.036-.2 6.49-3.968 6.318 1.058 1.536 2.33.912 3.48.912.806 0 1.808.53 1.646 1.74-.118.876-5.172 1.968-7.205 1.968-1.42 0-2.372-.44-3.085-1.43-.343-.475-.693-.69-1.085-.63-.486.075-1.055.574-1.055 1.73 0 .816.33 2.61 1.31 2.61.687 0 .717-1.417.433-2.35zm3.268 6.293c.462-.492.624-.85.51-1.13-.166-.402-1.215-1.574-2.59-2.896-.04.29-.117.598-.182.807.926 1.228 1.27 2.545.96 3.652.112.075.182.11.223.126.355.14.8-.26 1.078-.56zm-6.686-6.674c-.007.007-.178.176-.288.404.287 0 .622.05.923.132-.02-.267-.04-.63-.013-.942-.255.058-.528.303-.622.406zm46.187 8.43c.87-.4 1.497-1.476 1.662-2.53-.552.27-1.173.402-1.89.402-1.973 0-4.45-1.097-6.697-2.09 0 0-.484.406-1.287.49 2.266.698 6.72 3.17 7.047 4.755.22 1.06-.472 1.466-.472 1.466-.99-1.618-3.545-4.13-6.953-5.385.007.59-.106 1.006-.106 1.006s-.692.17-2.16-.084c1.284 1.072 4.658 4.858 5.024 7.73.244 1.918-1.096 2.006-1.096 2.006-.19-2.884-1.704-5.87-4.434-8.865 0 0-.447.7-1.042 1.056 0 0-1.01-.18-1.845-.733.323 3.806.513 8.75.313 10.246-.14 1.04-.743 1.478-.743 1.478s-.606-.437-.746-1.478c-.2-1.497-.01-6.44.313-10.246-.836.554-1.845.733-1.845.733-.595-.355-1.042-1.056-1.042-1.056-2.73 2.996-4.243 5.98-4.434 8.865 0 0-1.34-.088-1.096-2.006.366-2.872 3.74-6.658 5.025-7.73-1.47.255-2.16.085-2.16.085s-.114-.414-.107-1.005c-3.408 1.256-5.962 3.767-6.953 5.384 0 0-.69-.406-.472-1.467.327-1.585 4.78-4.057 7.047-4.754-.803-.086-1.287-.493-1.287-.493-2.246.994-4.724 2.09-6.697 2.09-.717 0-1.34-.13-1.89-.402.165 1.055.793 2.132 1.663 2.53-3.048 2.144-1.166 7.17-5.253 6.224 2.28 4.23 6.888 4.655 6.888 4.655-1.02-2.238.252-9.066 6.37-12.17-3.766 3.755-5.482 8.307-4.483 11.52.917 2.946 3.897 4.14 6.14 4.192-1.586-4.873-.608-10.455 2.685-13.97-1.412 3.855-3.395 14.14 2.333 16.113 5.728-1.973 3.743-12.258 2.33-16.112 3.294 3.514 4.272 9.096 2.685 13.97 2.244-.052 5.224-1.247 6.14-4.194 1-3.212-.716-7.764-4.482-11.518 6.118 3.103 7.39 9.93 6.37 12.17 0 0 4.61-.426 6.888-4.657-4.086.944-2.204-4.08-5.25-6.225zm-14.194-84.77c0-.303-.238-.55-.53-.55-.294 0-.53.247-.53.55 0 .302.236.548.53.548.292 0 .53-.246.53-.55zm2.678 0c0-.303-.237-.55-.53-.55-.293 0-.53.247-.53.55 0 .302.237.548.53.548.293 0 .53-.246.53-.55zm-4.16-14.228c0 .566.445 1.028.993 1.028s.994-.462.994-1.028c0-.566-.445-1.027-.993-1.027s-.993.462-.993 1.028zm.32-2.182h1.352L55.53 2.62l1.47.155V1.48l-1.47.157L55.676 0h-1.353l.146 1.637L53 1.48v1.295l1.47-.156-.147 1.636zm-1.516 16.41c0-.303-.238-.55-.53-.55-.294 0-.532.247-.532.55 0 .302.238.548.53.548.294 0 .532-.246.532-.55zm-3.188 2.03c.144.053.31.08.506.08h9.747c.197 0 .363-.027.506-.08.313-.112.505-.35.58-.727H49.04c.074.377.265.614.58.727zm.536-2.03c0-.303-.238-.55-.53-.55-.293 0-.532.247-.532.55 0 .302.24.548.53.548.294 0 .532-.246.532-.55zm10.66 0c0-.303-.238-.55-.53-.55-.293 0-.53.247-.53.55 0 .302.237.548.53.548.292 0 .53-.246.53-.55zm.638-1.3c.275-.343 1.64-2.99 1.64-5.663 0-2.405-3.016-3.73-4.81-3.79-.208 3.436-1.543 8.83-3.284 8.83-1.647 0-3.08-5.363-3.284-8.83-1.794.06-4.81 1.385-4.81 3.79 0 2.673 1.365 5.32 1.64 5.662h12.908zM55 17.035c.82 0 1.88-3.422 2.15-6.66 0-.656-.82-1.66-2.15-1.685-1.33.027-2.15 1.03-2.15 1.686.238 3.02 1.343 6.66 2.15 6.66zM28.942 34.503c-1.59 2.192.61 4.59.745 4.757.096.117.178.064.163-.067-.012-.113 1.145-3.493 7.8-1.713.143.038.23.04.097-.097-1.23-.977-2.688-3.166-3.16-4.927 0 0-4.054-.145-5.645 2.047zm3.57-.458c0-.612.888-.78 1.4-.78 0 0 .223.59.448.917-.52-.232-1.24-.256-1.85-.137zm3.532-2.86c-.443 0-.608.282-.464.77 1.53 5.167 5.7 6.392 7.345 8.63 0 0-.01-.698.752-2.36.52.854 1.928 2.456 2.843 2.66-.22-.46-.48-2.28-.276-3.502 2.16 1.894 4.824 2.267 6.253 1.174-1.217.047-2.8-1.31-3.6-2.515 1.115.258 2.648-.008 2.964-.33-.702-.17-1.556-.796-2.07-1.39.79-.055 2.505-.704 2.996-1.62-.688.157-1.707-.124-2.37-.476.505-.274 1.766-1.63 2.07-2.82-1.793.882-4.62 1.758-8.808 1.758l-7.634.02zm4.623 2.354c-1.184.47-1.777 1.104-1.777 1.104l-.75-1.235c-.18-.3-.238-.67.374-.67h3.67c0 .252-.333.33-1.517.8zm-12.53 8.405c.383.51 1.467 2.064 3.845.674 2.377-1.392 3.604-2.15 3.604-2.15s-.372.72-.09 1.58c.017.05.072.047.094-.004.237-.557 2.302-2.17 4.935-2.392-.965-.845-2.025-1.6-2.025-1.6-1.125.183-3.305.954-6.126 2.79-2.82 1.835-4.12 1.07-4.175 1.034-.055-.034-.13-.023-.063.067zm33.695 58.606c.407-.13.746-.336.92-.57-1.82-.078-3.325-1.654-3.876-2.627-.605 1.004-1.685 1.787-1.685 1.787-.77-.203-1.82-1.043-2.19-1.685-.37.642-1.422 1.482-2.19 1.685 0 0-1.082-.783-1.687-1.787-.55.973-2.055 2.55-3.877 2.628.175.234.515.44.92.57.273.088.574.142.878.142.32 0 .643-.058.932-.194-.182.663-.243 1.48-.11 2.04 0 0 .97.078 1.97-.3.072.605.348 1.338.8 1.834.09.097.183.19.285.265.538 0 1.836-.628 2.08-1.014.244.386 1.54 1.014 2.08 1.014.1-.076.194-.168.283-.265.453-.496.73-1.23.8-1.835.45.227.974.317 1.552.317.136 0 .276-.005.418-.015.134-.56.073-1.38-.11-2.042.29.136.612.194.933.194.304 0 .604-.054.876-.14zM43.647 61.633c-.357 0-.578.228-.578.596V84.54c0 2.13.836 3.21 2.487 3.21l4.13.014c2.83 0 4.5.976 5.313 2.186.692-1.128 2.635-2.186 5.313-2.186l4.13-.015c1.65 0 2.487-1.08 2.487-3.21V62.23c0-.368-.222-.596-.578-.596H43.647zm4.034 20.876c-.038.494.535 1.392 1.48 1.11-.028.184.025.682.236 1.056-1.675.38-2.398-1-1.715-2.166zm15.19-7.386c-.23-.246-.458-.494-.68-.744-.24-.266-.41-.37-.655-.37-.548 0-1.135.3-1.45.51-.02.008-.035.028-.043.082.333-.03.668-.054 1-.092.292-.033.564-.022.816.166.198.147.31.33.32.567.032.76.637 2.36.675 2.838.047.19-.18.244-.493 1.127-.232.26-.858-.565-.767-.757.364-.477.465-.774.373-1.13-.075-.284-.214-.794-.316-1.07-.138-.37-.448-.508-.833-.376-1.51.502-1.743-.167-3.24.463l1.724 2.67c-.005-.192-.098-.542-.377-.793.05-.27.594-.38.798-.13.25.322.736.778 1.137.85.77.144.71 1.314 2.766 1.705-.255.265-.825.175-1.074.056.15.232.322.45.632.53-.32.32-1.233-.43-1.14.325.158-.092.377-.107.562-.06.41.102 1.084 2.438-.334 3.46.302.09.626-.07.932-.07.18 0 .347.174.365.368.132.102.22.227.296.387-.106.035-.312.002-.427-.074.046.128.035.44-.013.446-.128.017-.227-.056-.358-.135-.182.095-.782.057-.952-.095-.452.11-.9.258-1.37.258-.255 0-.59-.016-.58-.328.007-.152.082-.23.14-.396-.216-.225-.577-.01-1.01.033-.583.056-.824-.034-.95-.154.55-.513.218-1.76-.635-1.87.702.673.61 1.762-.175 2.007.227.073.34.176.426.337.275.115.28.316.258.406-.15-.108-.423-.214-.64-.185-.015.095-.055.273-.137.34-.092-.02-.215-.105-.262-.174-.25-.19-1.813.176-1.908-.08-.06-.24.357-.44.742-.526-.99-.364-1.848-2.23-3.37-2.547-.707-.147-1.664.172-1.664 1.093 0 .452.363.8.755.8.362 0 .542-.25.542-.503-.058.044-.094.07-.13.1-.22.182-.502.17-.706-.03-.18-.174-.18-.48-.006-.685.143-.17.315-.268.545-.302.595-.087 1.083.104 1.412.584.156.23.243.474.243.71 0 1.062-1.06 1.303-1.648 1.303-1.477 0-2.347-1.06-2.347-2.287 0-.143.007-.288.03-.434.232-1.38 1.462-1.958 2.526-2.13-.135-.48-.398-.87-.774-1.187-.187-.158-.206-.287-.088-.488.16-.275.33-.546.4-.856.017-.07.024-.143.03-.218-.53.476-1.27.912-2.296 1.223-.323.15-.494.447-.535.786-.047.394-.058.794-.065 1.19-.002.093.064.193.115.28.19.33.4.648.448 1.057 0 .198-.994.22-.994.06-.01-.72-.49-1-.437-1.474.13-.74.16-1.48.04-2.222-.03-.187.07-.31.202-.41.21-.16.436-.306.647-.466.497-.38.703-.88.586-1.495-.015-.08-.05-.157-.085-.233-.247-.548-.428-1.104-.428-1.722 0-.678-.838-.64-.784.027.018.207.173.498.26.698.86 1.983-.686 3.41-2.285 3.41 1.68-.584-.393-2.74-.393-4.35 0-.986.76-1.715 1.668-1.715 1.047 0 1.71.676 1.9.792.507-.805 2.058-.95 2.64-1.043-.044-.433.017-.818.282-1.15.017-.024.028-.065.02-.09-.084-.204-.172-.407-.286-.605-.478.54-.592 1.256-.592 1.627-1.768-.026-2.548-.802-3.07-1.108.002-.135.472-.983.89-1.543-.458.392-.834.835-1.11 1.365-.253-.183-.518-.348-.778-.457.398-.854.926-1.52 1.6-2.216-.948.35-1.773 1.425-2.086 2.1-.27-.032-.67-.042-.892 0 1.033-1.264 1.504-3.758 3.774-4.317-.568 2.312.846 3.252 1.82 2.648-.127 0-.214.02-.296 0-1.898-.482-.773-3.117-1.233-3.666-.173-.21-.263-.4-.235-.662.01-.093-.017-.2-.06-.286l-1.01-1.69c-.126-.212.267-.363.35-.265l1.03 1.69c.028.04.06.103.1.11.375.067.492.38.644.656.047.09.085.192.094.292.007.078-.014.185-.065.237-.165.167-.133.33-.006.545.203.346 6.302 10.517 6.302 10.517-1.325.543-3.72.587-4.415.52-.143.352-.368.725-.7 1.084.33-.217.588-.492.826-.79.268.03.67.138 1.08.168-.243.52-.608 1.038-1.076 1.47-.22.22-.494.41-.393.76.113.392.84 1.14 1.107 1.623.263.055.708.15 1.035.28.185.4.815.903 1.574.643-1.526-.02-1.414-1.585-.94-2.413-.05.77.32 1.408.79 1.48-.705-.643-.634-2.105.052-2.907.098 1.302.492 1.987 1.056 2.14-.745-.686-1.193-2.275-.067-3.433.087 2.972 2.805 2.436 3.052 5.876 1.007 0 1.064-1.357.503-1.607-.328-.124-.624-.34-.79-.634-.07-.123-.143-.344-.2-.474-.3-.884-1.144-.828-1.124-1.04.02-.07.153-.104.34-.104l-1.592-2.463-.084-.128c.193-.04.235-.15.038-.462 0 0-5.974-9.946-6.002-10.003.555-.097 1.09.054 1.608.255-.14-.13-.252-.308-.276-.494-.02-.15-.014-.236.106-.33.127-.105.25-.225.338-.36.296-.452.84-.672 1.336-.53.748.212 1.012 1.057.463 1.502-.292.646-.654.564-.73.854.148.066 1.17.857 1.238 1.19-.305.634-.456 1.627-.192 2.18.198-2.638 1.785-3.93 3.33-3.93.367 0 .732.065 1.098.19.2.068.4.165.567.292.242.184.47.393.672.617.302.33.578.685 1.09.708-.15.213-.32.37-.495.524-.126.113-.19.25-.204.42-.036.365-.156.7-.426.97-.035.036-.065.084-.082.13-.17.498-.345.994-.506 1.496-.04.122-.032.29-.197.288-.143-.002-.315-.044-.422-.13-.226-.184-.307-.452-.226-.734.08-.28 0-.522-.088-.783-.09-.262-.123-.544-.184-.842-.422-.148-1.214.76-.61 1.52.393.56.746 1.593.807 2.016.012.04-.358.275-.868.21-1.723-.22-2.812-1.42-3.144-2.43-.026 1.713 1.393 2.98 3.495 2.858.086.4.412.67.79.682.08-.257.077-.797.013-1.14-.028-.15.05-.23.19-.265.46-.118 1.06-.072 1.57-.255.455-.163.67-.068.952.482.214.415.58.86.925 1.17.145.127.29.258.427.395.174.175.265.38.28.636-.046.4.007 1.2.007 1.214-.1.263-.827-.015-.944-.298-.044-.105.31-.845-.062-1.242zm12.542-42.666c-.47 1.76-1.93 3.95-3.16 4.927-.133.138-.046.135.097.097 6.655-1.78 7.81 1.6 7.8 1.713-.015.13.067.184.163.067.136-.166 2.335-2.565.744-4.757-1.59-2.192-5.645-2.047-5.645-2.047zm.228 1.726c.225-.327.45-.918.45-.918.51 0 1.4.17 1.4.78-.612-.118-1.332-.094-1.85.138zm6.223 7.763c.068-.09-.01-.1-.063-.067-.053.035-1.353.8-4.174-1.034-2.82-1.836-5.002-2.607-6.127-2.79 0 0-1.06.755-2.026 1.6 2.634.223 4.7 1.835 4.936 2.392.022.05.077.053.093.003.282-.86-.09-1.58-.09-1.58s1.227.758 3.605 2.15c2.378 1.39 3.462-.166 3.845-.675zm-22.278-9.72c-.664.353-1.683.634-2.37.478.49.915 2.204 1.564 2.994 1.62-.515.593-1.368 1.218-2.07 1.39.315.32 1.848.587 2.962.33-.798 1.203-2.383 2.56-3.6 2.514 1.43 1.093 4.094.72 6.254-1.174.202 1.223-.057 3.04-.276 3.502.915-.204 2.323-1.806 2.842-2.66.764 1.662.752 2.36.752 2.36 1.647-2.238 5.816-3.463 7.345-8.63.144-.488-.022-.77-.464-.77l-7.634-.02c-4.19 0-7.016-.877-8.808-1.758.303 1.19 1.565 2.545 2.07 2.82zm11.9.516c.612 0 .555.37.374.67l-.75 1.234s-.594-.635-1.777-1.105c-1.184-.47-1.518-.548-1.518-.8h3.67zM44.1 40.48c-.24.676-.31 1.422-.182 2.392.77 1.672 1.14 4.776.904 6.512 1.226-1.71 1.77-3.634 2.12-5.174.704.72 1.616 1.75 2.253 2.584.11-.904.303-2.02.473-2.825.916.874 2.816 1.973 4.1 2.362-.864-3.65-2.344-5.978-2.344-5.978-1.256.126-3.28-.18-4.19-1.075.163 1.323 1.073 2.844 1.073 2.844-1.95.19-3.33-.475-4.207-1.642zm21.8 0c-.877 1.167-2.258 1.833-4.207 1.643 0 0 .91-1.52 1.072-2.843-.91.895-2.933 1.2-4.19 1.075 0 0-1.48 2.327-2.345 5.977 1.286-.39 3.186-1.49 4.102-2.363.17.805.363 1.92.473 2.825.636-.834 1.548-1.864 2.252-2.584.35 1.54.895 3.463 2.12 5.174-.237-1.736.136-4.84.905-6.512.127-.97.056-1.716-.182-2.392zM49.133 51.98c.736 1.182 1.39 2.605 1.617 3.87.705-.852 1.45-2.336 1.955-4.108.62.774 1.7 2.35 2.295 3.65.595-1.3 1.676-2.876 2.295-3.65.505 1.772 1.25 3.256 1.955 4.11.227-1.267.88-2.69 1.617-3.872.56 2.3 2.717 4.54 4.944 4.71-1.448-1.882-1.507-5.134-1.405-6.217-.965-1.5-1.6-2.854-1.904-3.773-.653.647-1.665 1.904-2.573 3.358 0-.018-.027-1.823-.39-4.014-.935.846-2.63 1.458-3.536 1.696-.57.933-.728 1.66-1 2.832-.272-1.17-.43-1.9-1-2.832-.907-.238-2.602-.85-3.54-1.696-.36 2.19-.387 3.996-.387 4.014-.908-1.454-1.92-2.71-2.575-3.358-.303.92-.94 2.273-1.904 3.773.103 1.083.043 4.335-1.406 6.216 2.228-.17 4.386-2.41 4.945-4.71zm-20.18 27.222c1.25-.816 2.042-2.298 2.943-4.11-.525.217-1.284.452-2.045.61-.742 1.436-1.794.88-1.82.675.226-.252.486-.624.68-.948-.315-.593-.697-1.476-.907-2.02-1.062 2.236-3.014 4.508-4.648 5.395.96 1.337 3.94 1.61 5.8.397zm3.864-3.77c-.886 1.87-.678 4.754 2.145 4.836-.234-2.042.685-3.963 1.67-4.837-.847.21-2.224 1.32-2.224 1.32s-.207.474-.25 1.09c-.59.105-.916-.35-.67-1.3 0 0-.428-.488-.67-1.11zm-13.97 2.136c.41 0 .826-.05 1.233-.15 2.726-.675 5.32-3.006 6.864-4.963-.88.28-1.77.46-2.758.56 0 0-.69.81-1.223 1.108-.27.153-.54.226-.795.226-.77 0-1.098-.634-1.098-.634s1.244-.596 2.035-1.442c-.157-.625-.257-1.49-.275-2.35-2.146 2.155-6.18 4.25-8.996 4.657.557 1.162 2.535 2.988 5.012 2.988zm-5.457-4.573c.14 0 .283-.007.423-.02 2.8-.278 6.182-2.072 8.36-3.625-.694.14-2.517.182-3.38.06-.3.2-1.618 1.035-2.715 1.174-2 .254-2.212-.984-2.212-.984 1.285-.157 2.767-.59 4.183-1.25.14-1.068.388-2.018.6-2.72-3.09 1.72-8.127 2.93-11.115 2.97.598 1.42 2.916 4.395 5.855 4.395zm.44-10.09c.43-.762 1.112-1.663 1.732-2.397-2.465.68-5.64.82-7.32.82-1.985 0-3.913-.14-5.018-.36.098 1.992 1.993 5.43 5.733 5.766.195.018.41.026.642.026 2.332 0 6.043-.944 8.596-1.85-1.82-.234-3.58-.667-3.98-.835-.95.273-3.218.653-3.954.613-1.672-.092-1.85-1.376-1.85-1.376s3.008.127 5.418-.408zM4.852 59.25c1.39.45 3.605.707 6.08.707 1.51 0 3.102-.136 4.397-.32-1.4-.477-3.126-1.197-4.248-1.91-1.402-.028-3.306-.068-4.528-.443-1.797-.55-1.772-1.78-1.74-2.055 1.554.625 4.198 1.222 6.152 1.34.72-.695 1.833-1.522 3.007-2.242-4.637.04-10.556-1.796-13.882-3.557-.76 6.188 3.443 8.052 4.762 8.48zM15.045 46.42c-.716-1.373-1.414-3.22-1.506-4.812-2.17-1.704-4.645-3.872-6.077-6.35-.828-1.434-.522-2.69.064-3.12.447 1.555 3.36 5.913 6 8.1.02-1.398.255-3.004.62-4.213-3.07-3.34-6.51-8.873-7.34-11.04-.935.773-2.545 2.72-2.94 5.462-.4 2.76.495 5.596 2.66 8.43 1.662 2.178 5.325 5.426 8.518 7.543zm-.883 7.02c-2.11-1.4-3.572-2.697-4.35-3.863-1.764-.686-4.044-1.733-5.167-2.676-1.543-1.294-1.054-2.46-.874-2.693 1.36 1.388 4.3 3.388 6.39 4.278 1.306-.51 3.118-.882 4.885-1.1-5.235-2.068-10.853-5.95-13.79-9.61C.66 38.93-1.76 44.37 2.775 48.83c2.39 2.35 7.308 3.97 11.387 4.61zm68.035 19.97c-.21.544-.592 1.427-.908 2.02.194.323.454.695.68.947-.027.204-1.078.76-1.82-.675-.762-.158-1.522-.393-2.046-.61.9 1.812 1.69 3.294 2.942 4.11 1.857 1.212 4.837.94 5.8-.397-1.635-.887-3.587-3.16-4.65-5.396zm-5.015 2.02c-.242.622-.67 1.11-.67 1.11.246.95-.08 1.405-.672 1.3-.04-.616-.25-1.09-.25-1.09s-1.375-1.11-2.22-1.32c.982.875 1.902 2.796 1.668 4.838 2.822-.082 3.03-2.966 2.144-4.837zm9.713-3.156c.79.846 2.034 1.442 2.034 1.442s-.328.633-1.1.633c-.254 0-.523-.074-.793-.227-.532-.3-1.223-1.107-1.223-1.107-.987-.1-1.877-.282-2.758-.56 1.543 1.956 4.138 4.287 6.863 4.96.407.1.822.152 1.234.152 2.476 0 4.455-1.826 5.012-2.987-2.817-.406-6.85-2.5-8.997-4.657-.02.862-.12 1.726-.275 2.35zm5.055-3.925c1.417.66 2.9 1.093 4.184 1.25 0 0-.212 1.238-2.212.984-1.097-.14-2.416-.973-2.714-1.173-.865.122-2.687.08-3.38-.06 2.177 1.553 5.558 3.347 8.36 3.624.14.014.28.02.422.02 2.94 0 5.257-2.973 5.855-4.394-2.99-.04-8.026-1.25-11.114-2.97.212.702.458 1.652.6 2.72zm2.487-7.842c.62.734 1.302 1.635 1.733 2.396 2.41.535 5.418.408 5.418.408s-.178 1.284-1.85 1.376c-.737.04-3.005-.34-3.954-.613-.402.168-2.16.6-3.98.835 2.553.906 6.264 1.85 8.597 1.85.232 0 .447-.008.642-.026 3.74-.336 5.636-3.774 5.734-5.767-1.105.222-3.033.362-5.017.362-1.683 0-4.857-.143-7.323-.822zm15.472-9.735c-3.327 1.76-9.246 3.598-13.883 3.557 1.174.72 2.287 1.547 3.007 2.24 1.954-.116 4.597-.713 6.15-1.338.033.276.06 1.505-1.74 2.055-1.22.375-3.124.415-4.526.443-1.122.713-2.85 1.433-4.248 1.91 1.296.184 2.888.32 4.398.32 2.474 0 4.69-.26 6.08-.708 1.32-.427 5.52-2.29 4.76-8.48zm-7.437-18.636c.586.432.89 1.687.064 3.12-1.433 2.48-3.908 4.647-6.076 6.35-.092 1.593-.79 3.44-1.505 4.813 3.193-2.117 6.856-5.365 8.52-7.544 2.162-2.833 3.057-5.67 2.66-8.43-.397-2.742-2.007-4.688-2.94-5.462-.832 2.168-4.272 7.7-7.34 11.04.363 1.21.598 2.816.62 4.213 2.638-2.186 5.55-6.544 5.998-8.1zM99.84 48.485c2.088-.89 5.03-2.89 6.39-4.278.18.233.667 1.4-.876 2.694-1.123.944-3.402 1.99-5.165 2.677-.78 1.166-2.243 2.464-4.353 3.864 4.08-.64 9-2.26 11.387-4.61 4.534-4.46 2.115-9.9 1.52-11.056-2.936 3.66-8.555 7.543-13.79 9.612 1.767.217 3.58.59 4.885 1.1zM87.64 42.222c-1.7 3.947-6.01 7.466-8.798 9.228-1.27.803-.807 2.327-.4 3.003 3.798 6.315-3.11 11.02-9.347 7.892 1.36.015 2.735-1.143 2.925-2.174-.432.375-2.204.17-2.727-.315.804-.42.995-.847 1.036-1.246-.993.61-3 .693-3.593-.338-3.296-.09-5.49-2.663-5.73-3.406-.246.79-.64 2.17-.77 3.534-.894-.606-2.42-1.977-3.216-3.836-.9 1.288-1.58 2.738-2.02 4.266-.44-1.528-1.12-2.978-2.02-4.266-.797 1.86-2.324 3.23-3.217 3.836-.13-1.363-.524-2.744-.77-3.534-.24.743-2.434 3.317-5.73 3.406-.592 1.03-2.6.947-3.594.337.04.398.23.824 1.035 1.245-.524.484-2.295.69-2.728.316.19 1.032 1.565 2.19 2.926 2.175-6.24 3.13-13.145-1.577-9.347-7.892.407-.676.87-2.2-.4-3.003-2.79-1.762-7.1-5.28-8.8-9.228-.2 1.61-.047 5.604 1.68 8.09-1.262.482-2.88 1.265-3.967 1.992.687.783 2.29 2.135 3.365 2.87-.88.782-2.243 2.28-2.958 3.26.906.54 2.734 1.195 4.13 1.637-.645 1.067-1.638 2.99-1.887 4.135 1.563.228 3.16.207 4.568.163-.18 1.334-.062 3.01.08 4.23 1.45-.208 3.046-.797 4.105-1.356.2.922.755 2.622 1.25 3.53 1.378-1.307 3.194-1.905 4.874-1.56 3.442.71 4.465 4.196 4.465 4.196l.005-10.6v-1.185c0-.66.355-1.01.993-1.01h23.88c.637 0 .992.35.992 1.01v1.184l.006 10.6s1.023-3.484 4.464-4.194c1.68-.346 3.497.252 4.873 1.56.497-.91 1.05-2.61 1.25-3.53 1.06.558 2.657 1.147 4.108 1.356.14-1.222.26-2.898.08-4.232 1.392.144 2.993.144 4.567-.163-.25-1.144-1.242-3.068-1.887-4.134 1.452-.39 3.223-1.097 4.13-1.637-.715-.98-2.08-2.477-2.958-3.26 1.076-.734 2.678-2.086 3.366-2.87-1.087-.726-2.705-1.51-3.966-1.992 1.726-2.484 1.88-6.478 1.678-8.088zm-43.4-12.41l-.143.372c4.17 0 8.183-1.43 9.253-6.408h-3.196c-.567 3.587-2.673 6.035-5.916 6.035zm-18.04-8.1s2.282.53 3.175 3.746c.894 3.216 3.138 4.754 5.44 4.754l-.14-.438c-1.34-.167-3.23-2.078-3.583-5.617-.356-3.563-1.23-4.022-1.23-4.022-.9-.624-3.168 1.025-3.662 1.578zm-6.676 1.44c1.904-.063 3.185.543 5.577-1.64 2.825-2.576 4.166-2.135 4.166-2.135-1.443-.94-3.453-1.357-4.143-.814-.69.542-1.625 1.998-3.195 3.034-2.213 1.46-4.486 1.075-4.588 2.436h.062s.217-.82 2.12-.882zm1.756 8.542c1.157 1.142 1.264 3.49 1.264 3.49s1.385-2.49.243-5.133c-1.142-2.644-3.476-4.673-1.188-6.217-1.398.012-2.912-.31-3.577.638-.207.297-.4 1.03.298 2.07.885 1.324 3.096 4.403 1.284 6.453 1.325-.245 1.675-1.3 1.675-1.3zm14.293-1.496h7.84s.194-.477.44-1.165h-8.72c.246.688.44 1.165.44 1.165zm4.69-11.147c0-.427-.337-.776-.754-.776s-.755.35-.755.777c0 .43.338.778.756.778s.756-.348.756-.777zm3.917 9.104c.335-1.053.713-2.654.713-3.426 0-1.412-.76-2.976-3.5-3.457 0 1.708-.827 5.89-1.828 5.89h-.113c-1 0-1.83-4.15-1.83-5.89-2.748.48-3.53 2.045-3.53 3.458 0 .772.38 2.373.714 3.426h9.374zm-4.67-2.166c.52 0 .943-2.73.943-4.09 0-.742-.423-1.23-.944-1.23-.52 0-.944.488-.944 1.23 0 1.36.423 4.09.945 4.09zm-.505-8.75h1.007l-.125-1.293 1.258.13v-1.036l-1.26.128.126-1.294h-1.007l.126 1.294-1.26-.13v1.036l1.26-.13-.126 1.295zm20.836 6.538h-3.196c1.07 4.978 5.08 6.408 9.254 6.408l-.14-.373c-3.244 0-5.35-2.447-5.917-6.034zm15.34 6.436c2.3 0 4.546-1.538 5.44-4.754.892-3.215 3.175-3.745 3.175-3.745-.495-.553-2.76-2.202-3.663-1.578 0 0-.873.46-1.23 4.022-.352 3.54-2.242 5.45-3.582 5.617l-.14.438zm9.714-8.7c2.392 2.183 3.673 1.577 5.577 1.64 1.903.062 2.12.88 2.12.88h.062c-.102-1.36-2.375-.974-4.588-2.435-1.57-1.036-2.505-2.492-3.195-3.034-.69-.543-2.7-.125-4.142.814 0 0 1.342-.44 4.167 2.136zm7.078 2.96c-.665-.95-2.18-.627-3.577-.64 2.288 1.545-.045 3.574-1.188 6.22-1.14 2.643.244 5.13.244 5.13s.107-2.346 1.264-3.488c0 0 .35 1.054 1.675 1.3-1.812-2.05.4-5.13 1.284-6.453.696-1.04.505-1.773.298-2.07zm-17.55 5.726s.194-.477.44-1.165h-8.72c.246.688.44 1.165.44 1.165h7.84zm-3.18-11.147c0-.427-.34-.776-.756-.776-.418 0-.757.35-.757.777 0 .43.34.778.756.778s.755-.348.755-.777zm3.947 9.104c.335-1.053.713-2.654.713-3.426 0-1.413-.782-2.977-3.53-3.457 0 1.74-.83 5.89-1.83 5.89h-.112c-1 0-1.83-4.182-1.83-5.89-2.74.482-3.498 2.046-3.498 3.458 0 .772.378 2.373.712 3.426h9.375zm-4.703-2.166c.52 0 .944-2.73.944-4.09 0-.742-.423-1.23-.945-1.23-.523 0-.945.488-.945 1.23 0 1.36.422 4.09.944 4.09zm-.504-8.75h1.007l-.126-1.293 1.26.13v-1.036l-1.26.128.126-1.294h-1.007l.125 1.294-1.258-.13v1.036l1.26-.13-.126 1.295zM18.69 48.355c-2.038.05-5.624.456-7.445 1.036 1.238 1.49 4.47 3.632 6.408 4.54-1.507.573-4.21 2.026-5.336 3.075 1.452.9 4.64 1.928 6.148 2.264-.877.713-2.684 2.778-3.347 3.89 1.248.39 3.814.73 5.443.827-.52 1.092-1.116 3.02-1.274 4.275.808.083 3.506-.057 4.842-.358-.114 1.094-.07 3.086.11 3.944 1.318-.19 3.2-.722 4.076-1.06.254.975 1.16 3.076 1.48 3.575 1.055-.204 2.315-.636 3.242-1.123.293.782.958 1.952 1.142 2.247 3.087-3.13 7.495-.59 7.495 2.74-.317 2.193-3.406 2.07-5.032 3.1-2.137 1.357-1.767 4.5-3.968 4.984 2.08 1.32 2.685-1.156 4.845-1.226-.29 1.335-.26 3.705-.045 4.698.89-.688 2.136-1.214 2.95-1.267-.2.78-.357 2.6-.066 3.736.573-.434 2.713-2.3 7.794-1.1.616.145-3.446-.015-2.94 1.3.4 1.035.513 1.755.035 3.226.216.077.466.114.735.114 1.14 0 2.616-.663 3.203-1.704.454.338.454 2.746-1.066 3.344 1.623.12 2.86-1.203 3.1-2.016 0 0 .792 1.892 1.733 2.513.59-.208 1.643-1.19 2.05-2.21.406 1.02 1.46 2.002 2.05 2.21.94-.62 1.734-2.513 1.734-2.513.24.813 1.475 2.135 3.098 2.016-1.52-.598-1.52-3.006-1.066-3.344.587 1.04 2.064 1.704 3.204 1.704.27 0 .52-.037.735-.114-.478-1.47-.365-2.19.034-3.227.506-1.315-3.556-1.155-2.94-1.3 5.08-1.2 7.22.666 7.794 1.1.29-1.134.134-2.956-.067-3.735.815.053 2.062.58 2.95 1.267.217-.993.245-3.363-.044-4.698 2.16.07 2.765 2.546 4.845 1.227-2.2-.482-1.83-3.626-3.97-4.982-1.626-1.03-4.715-.908-5.03-3.102 0-3.33 4.407-5.868 7.494-2.74.183-.294.85-1.464 1.142-2.246.926.487 2.187.92 3.243 1.123.32-.5 1.225-2.6 1.478-3.576.876.34 2.76.87 4.077 1.06.18-.857.224-2.85.11-3.943 1.335.3 4.033.44 4.84.358-.156-1.255-.75-3.183-1.274-4.275 1.63-.096 4.196-.436 5.444-.826-.663-1.112-2.47-3.177-3.347-3.89 1.507-.337 4.695-1.365 6.147-2.265-1.126-1.05-3.83-2.502-5.335-3.074 1.937-.908 5.17-3.05 6.408-4.54-1.822-.58-5.408-.987-7.444-1.036 4.216-2.885 4.346-9.14 3.132-12.54-.816 2.06-3.522 5.446-5.27 7.272.156 1.737-.408 4.82-1.374 6.7 1.384.526 3.024 1.32 4.185 2.203-.77.97-2.43 2.475-3.47 3.29.88.922 2.362 2.614 3.02 3.592-.974.73-3.095 1.568-4.183 1.953.535 1.098 1.313 3.1 1.514 4.484-1.24.204-2.944.342-4.727.32.087 1.325-.1 3.375-.33 4.602-1.653-.132-3.604-.81-4.473-1.247-.46 1.83-1.597 3.605-1.647 3.7-5.168-5.635-9.75-.32-9.75 4.647V84.1c0 3.2-1.007 4.663-3.91 4.663h-3.754c-2.337 0-4.296.992-5.273 2.898-.977-1.905-2.936-2.897-5.274-2.897H45.97c-2.9 0-3.91-1.462-3.91-4.663v-6.768c0-4.966-4.58-10.282-9.747-4.647-.05-.095-1.187-1.87-1.647-3.7-.87.437-2.82 1.115-4.473 1.247-.23-1.227-.417-3.277-.33-4.6-1.783.02-3.488-.118-4.727-.323.2-1.384.978-3.387 1.514-4.485-1.088-.385-3.21-1.223-4.185-1.953.66-.978 2.14-2.67 3.02-3.59-1.04-.817-2.698-2.323-3.47-3.293 1.163-.885 2.803-1.678 4.187-2.204-.967-1.88-1.53-4.963-1.375-6.7-1.747-1.826-4.453-5.212-5.27-7.273-1.214 3.4-1.084 9.656 3.132 12.54zM7.055 80.668l-.38.406s.79 1.03 1.425.638c.363-.67-.662-1.448-.662-1.448l-.382.404z"/></svg>